<mxfile host="app.diagrams.net" modified="2021-03-24T12:29:55.834Z" agent="5.0 (Windows NT 10.0; Win64; x64) AppleWebKit/537.36 (KHTML, like Gecko) Chrome/89.0.4389.90 Safari/537.36" etag="0-4qAoNn8A1YGtvFOVzn" version="14.4.9" type="github">
  <diagram id="J3s7-uinFj8kyQBmaJXc" name="Page-1">
    <mxGraphModel dx="1240" dy="643" grid="1" gridSize="10" guides="1" tooltips="1" connect="1" arrows="1" fold="1" page="1" pageScale="1" pageWidth="827" pageHeight="1169" math="0" shadow="0">
      <root>
        <mxCell id="0" />
        <mxCell id="1" parent="0" />
        <mxCell id="IlUTLpWFwdJ3M1dTaCwW-1" value="Preprocesado" style="rounded=1;whiteSpace=wrap;html=1;fillColor=#e1d5e7;strokeColor=#9673a6;" vertex="1" parent="1">
          <mxGeometry x="365" y="10" width="120" height="30" as="geometry" />
        </mxCell>
        <mxCell id="IlUTLpWFwdJ3M1dTaCwW-2" value="SelecciÃ³n de Sentence Transformer" style="rounded=1;whiteSpace=wrap;html=1;fillColor=#e1d5e7;strokeColor=#9673a6;" vertex="1" parent="1">
          <mxGeometry x="360" y="75" width="130" height="30" as="geometry" />
        </mxCell>
        <mxCell id="IlUTLpWFwdJ3M1dTaCwW-3" value="BERTOPIC" style="rounded=1;whiteSpace=wrap;html=1;fillColor=#e1d5e7;strokeColor=#9673a6;" vertex="1" parent="1">
          <mxGeometry x="365" y="145" width="120" height="30" as="geometry" />
        </mxCell>
        <mxCell id="IlUTLpWFwdJ3M1dTaCwW-4" value="SELECCION DE ETIQUETADO" style="rhombus;whiteSpace=wrap;html=1;fillColor=#76608a;strokeColor=#432D57;fontColor=#ffffff;" vertex="1" parent="1">
          <mxGeometry x="360" y="215" width="130" height="70" as="geometry" />
        </mxCell>
        <mxCell id="IlUTLpWFwdJ3M1dTaCwW-5" value="ESCENARIO MONOLABEL" style="ellipse;whiteSpace=wrap;html=1;fillColor=#f8cecc;strokeColor=#b85450;" vertex="1" parent="1">
          <mxGeometry x="522" y="305" width="120" height="80" as="geometry" />
        </mxCell>
        <mxCell id="IlUTLpWFwdJ3M1dTaCwW-6" value="ESCENARIO MULTILABEL" style="ellipse;whiteSpace=wrap;html=1;fillColor=#fff2cc;strokeColor=#d6b656;" vertex="1" parent="1">
          <mxGeometry x="200" y="305" width="120" height="80" as="geometry" />
        </mxCell>
        <mxCell id="IlUTLpWFwdJ3M1dTaCwW-7" value="VISUALIZATION" style="rounded=0;whiteSpace=wrap;html=1;fillColor=#60a917;strokeColor=#2D7600;fontColor=#ffffff;" vertex="1" parent="1">
          <mxGeometry x="172" y="137.5" width="140" height="45" as="geometry" />
        </mxCell>
        <mxCell id="IlUTLpWFwdJ3M1dTaCwW-8" value="SILHOUETTE" style="rounded=0;whiteSpace=wrap;html=1;fillColor=#60a917;strokeColor=#2D7600;fontColor=#ffffff;" vertex="1" parent="1">
          <mxGeometry x="542" y="137.5" width="140" height="45" as="geometry" />
        </mxCell>
        <mxCell id="IlUTLpWFwdJ3M1dTaCwW-9" value="KNEIGBORS" style="rounded=1;whiteSpace=wrap;html=1;fillColor=#fff2cc;strokeColor=#d6b656;" vertex="1" parent="1">
          <mxGeometry x="132" y="405" width="120" height="60" as="geometry" />
        </mxCell>
        <mxCell id="IlUTLpWFwdJ3M1dTaCwW-10" value="CENTROIDES" style="rounded=1;whiteSpace=wrap;html=1;fillColor=#fff2cc;strokeColor=#d6b656;" vertex="1" parent="1">
          <mxGeometry x="270" y="405" width="120" height="60" as="geometry" />
        </mxCell>
        <mxCell id="IlUTLpWFwdJ3M1dTaCwW-11" value="KNEIGBORS" style="rounded=1;whiteSpace=wrap;html=1;fillColor=#f8cecc;strokeColor=#b85450;" vertex="1" parent="1">
          <mxGeometry x="442.5" y="405" width="120" height="60" as="geometry" />
        </mxCell>
        <mxCell id="IlUTLpWFwdJ3M1dTaCwW-12" value="CENTROIDES" style="rounded=1;whiteSpace=wrap;html=1;fillColor=#f8cecc;strokeColor=#b85450;" vertex="1" parent="1">
          <mxGeometry x="600" y="405" width="120" height="60" as="geometry" />
        </mxCell>
        <mxCell id="IlUTLpWFwdJ3M1dTaCwW-13" value="EVALUATION: ACCURACY, PRECISION, RECALL, F1, CONFUSION MATRIX, CENTROID DIFFERENCE" style="rounded=1;whiteSpace=wrap;html=1;fillColor=#b1ddf0;strokeColor=#10739e;" vertex="1" parent="1">
          <mxGeometry x="90" y="510" width="670" height="30" as="geometry" />
        </mxCell>
        <mxCell id="IlUTLpWFwdJ3M1dTaCwW-14" value="" style="endArrow=classic;html=1;entryX=0.5;entryY=0;entryDx=0;entryDy=0;exitX=0.5;exitY=1;exitDx=0;exitDy=0;" edge="1" parent="1" source="IlUTLpWFwdJ3M1dTaCwW-1" target="IlUTLpWFwdJ3M1dTaCwW-2">
          <mxGeometry width="50" height="50" relative="1" as="geometry">
            <mxPoint x="270" y="70" as="sourcePoint" />
            <mxPoint x="320" y="20" as="targetPoint" />
          </mxGeometry>
        </mxCell>
        <mxCell id="IlUTLpWFwdJ3M1dTaCwW-15" value="SAMPLES" style="text;html=1;strokeColor=none;fillColor=none;align=center;verticalAlign=middle;whiteSpace=wrap;rounded=0;" vertex="1" parent="1">
          <mxGeometry x="445" y="50" width="115" height="20" as="geometry" />
        </mxCell>
        <mxCell id="IlUTLpWFwdJ3M1dTaCwW-16" value="EMBEDDINGS" style="text;html=1;strokeColor=none;fillColor=none;align=center;verticalAlign=middle;whiteSpace=wrap;rounded=0;" vertex="1" parent="1">
          <mxGeometry x="482.5" y="117.5" width="40" height="20" as="geometry" />
        </mxCell>
        <mxCell id="IlUTLpWFwdJ3M1dTaCwW-17" value="" style="endArrow=classic;html=1;entryX=0.5;entryY=0;entryDx=0;entryDy=0;exitX=0.5;exitY=1;exitDx=0;exitDy=0;" edge="1" parent="1" source="IlUTLpWFwdJ3M1dTaCwW-2" target="IlUTLpWFwdJ3M1dTaCwW-3">
          <mxGeometry width="50" height="50" relative="1" as="geometry">
            <mxPoint x="300" y="140" as="sourcePoint" />
            <mxPoint x="350" y="90" as="targetPoint" />
          </mxGeometry>
        </mxCell>
        <mxCell id="IlUTLpWFwdJ3M1dTaCwW-18" value="" style="endArrow=classic;html=1;exitX=1;exitY=0.5;exitDx=0;exitDy=0;" edge="1" parent="1" source="IlUTLpWFwdJ3M1dTaCwW-3">
          <mxGeometry width="50" height="50" relative="1" as="geometry">
            <mxPoint x="530" y="270" as="sourcePoint" />
            <mxPoint x="540" y="159.9999999999999" as="targetPoint" />
          </mxGeometry>
        </mxCell>
        <mxCell id="IlUTLpWFwdJ3M1dTaCwW-19" value="" style="endArrow=classic;html=1;entryX=1;entryY=0.5;entryDx=0;entryDy=0;exitX=0;exitY=0.5;exitDx=0;exitDy=0;" edge="1" parent="1" source="IlUTLpWFwdJ3M1dTaCwW-3" target="IlUTLpWFwdJ3M1dTaCwW-7">
          <mxGeometry width="50" height="50" relative="1" as="geometry">
            <mxPoint x="280" y="280" as="sourcePoint" />
            <mxPoint x="330" y="230" as="targetPoint" />
          </mxGeometry>
        </mxCell>
        <mxCell id="IlUTLpWFwdJ3M1dTaCwW-20" value="" style="endArrow=classic;html=1;entryX=0.5;entryY=0;entryDx=0;entryDy=0;exitX=0.5;exitY=1;exitDx=0;exitDy=0;" edge="1" parent="1" source="IlUTLpWFwdJ3M1dTaCwW-3" target="IlUTLpWFwdJ3M1dTaCwW-4">
          <mxGeometry width="50" height="50" relative="1" as="geometry">
            <mxPoint x="290" y="270" as="sourcePoint" />
            <mxPoint x="340" y="220" as="targetPoint" />
          </mxGeometry>
        </mxCell>
        <mxCell id="IlUTLpWFwdJ3M1dTaCwW-21" value="" style="endArrow=classic;html=1;exitX=1;exitY=0.5;exitDx=0;exitDy=0;entryX=0.5;entryY=0;entryDx=0;entryDy=0;" edge="1" parent="1" source="IlUTLpWFwdJ3M1dTaCwW-4" target="IlUTLpWFwdJ3M1dTaCwW-5">
          <mxGeometry width="50" height="50" relative="1" as="geometry">
            <mxPoint x="510" y="270" as="sourcePoint" />
            <mxPoint x="560" y="220" as="targetPoint" />
            <Array as="points">
              <mxPoint x="582" y="250" />
            </Array>
          </mxGeometry>
        </mxCell>
        <mxCell id="IlUTLpWFwdJ3M1dTaCwW-22" value="" style="endArrow=classic;html=1;exitX=0;exitY=0.5;exitDx=0;exitDy=0;entryX=0.5;entryY=0;entryDx=0;entryDy=0;" edge="1" parent="1" source="IlUTLpWFwdJ3M1dTaCwW-4" target="IlUTLpWFwdJ3M1dTaCwW-6">
          <mxGeometry width="50" height="50" relative="1" as="geometry">
            <mxPoint x="270" y="260" as="sourcePoint" />
            <mxPoint x="320" y="210" as="targetPoint" />
            <Array as="points">
              <mxPoint x="272" y="250" />
              <mxPoint x="260" y="250" />
            </Array>
          </mxGeometry>
        </mxCell>
        <mxCell id="IlUTLpWFwdJ3M1dTaCwW-23" value="" style="endArrow=classic;html=1;exitX=1;exitY=0.5;exitDx=0;exitDy=0;" edge="1" parent="1" source="IlUTLpWFwdJ3M1dTaCwW-6">
          <mxGeometry width="50" height="50" relative="1" as="geometry">
            <mxPoint x="370" y="370" as="sourcePoint" />
            <mxPoint x="330" y="402" as="targetPoint" />
            <Array as="points">
              <mxPoint x="330" y="345" />
            </Array>
          </mxGeometry>
        </mxCell>
        <mxCell id="IlUTLpWFwdJ3M1dTaCwW-24" value="" style="endArrow=classic;html=1;entryX=0.5;entryY=0;entryDx=0;entryDy=0;exitX=0;exitY=0.5;exitDx=0;exitDy=0;" edge="1" parent="1" source="IlUTLpWFwdJ3M1dTaCwW-6" target="IlUTLpWFwdJ3M1dTaCwW-9">
          <mxGeometry width="50" height="50" relative="1" as="geometry">
            <mxPoint x="90" y="390" as="sourcePoint" />
            <mxPoint x="140" y="340" as="targetPoint" />
            <Array as="points">
              <mxPoint x="190" y="345" />
            </Array>
          </mxGeometry>
        </mxCell>
        <mxCell id="IlUTLpWFwdJ3M1dTaCwW-25" value="" style="endArrow=classic;html=1;exitX=1;exitY=0.5;exitDx=0;exitDy=0;entryX=0.5;entryY=0;entryDx=0;entryDy=0;" edge="1" parent="1" source="IlUTLpWFwdJ3M1dTaCwW-5" target="IlUTLpWFwdJ3M1dTaCwW-12">
          <mxGeometry width="50" height="50" relative="1" as="geometry">
            <mxPoint x="680" y="350" as="sourcePoint" />
            <mxPoint x="730" y="300" as="targetPoint" />
            <Array as="points">
              <mxPoint x="660" y="345" />
            </Array>
          </mxGeometry>
        </mxCell>
        <mxCell id="IlUTLpWFwdJ3M1dTaCwW-26" value="" style="endArrow=classic;html=1;entryX=0.5;entryY=0;entryDx=0;entryDy=0;exitX=0;exitY=0.5;exitDx=0;exitDy=0;" edge="1" parent="1" source="IlUTLpWFwdJ3M1dTaCwW-5" target="IlUTLpWFwdJ3M1dTaCwW-11">
          <mxGeometry width="50" height="50" relative="1" as="geometry">
            <mxPoint x="390" y="380" as="sourcePoint" />
            <mxPoint x="440" y="330" as="targetPoint" />
            <Array as="points">
              <mxPoint x="503" y="345" />
            </Array>
          </mxGeometry>
        </mxCell>
        <mxCell id="IlUTLpWFwdJ3M1dTaCwW-27" value="" style="endArrow=classic;html=1;exitX=0.5;exitY=1;exitDx=0;exitDy=0;" edge="1" parent="1" source="IlUTLpWFwdJ3M1dTaCwW-9">
          <mxGeometry width="50" height="50" relative="1" as="geometry">
            <mxPoint x="120" y="690" as="sourcePoint" />
            <mxPoint x="192" y="510" as="targetPoint" />
          </mxGeometry>
        </mxCell>
        <mxCell id="IlUTLpWFwdJ3M1dTaCwW-28" value="" style="endArrow=classic;html=1;exitX=0.5;exitY=1;exitDx=0;exitDy=0;" edge="1" parent="1">
          <mxGeometry width="50" height="50" relative="1" as="geometry">
            <mxPoint x="329.6599999999996" y="465" as="sourcePoint" />
            <mxPoint x="329.6599999999996" y="510" as="targetPoint" />
          </mxGeometry>
        </mxCell>
        <mxCell id="IlUTLpWFwdJ3M1dTaCwW-29" value="" style="endArrow=classic;html=1;exitX=0.5;exitY=1;exitDx=0;exitDy=0;" edge="1" parent="1">
          <mxGeometry width="50" height="50" relative="1" as="geometry">
            <mxPoint x="659.6599999999996" y="465" as="sourcePoint" />
            <mxPoint x="659.6599999999996" y="510" as="targetPoint" />
          </mxGeometry>
        </mxCell>
        <mxCell id="IlUTLpWFwdJ3M1dTaCwW-30" value="" style="endArrow=classic;html=1;exitX=0.5;exitY=1;exitDx=0;exitDy=0;" edge="1" parent="1">
          <mxGeometry width="50" height="50" relative="1" as="geometry">
            <mxPoint x="502.1600000000001" y="465" as="sourcePoint" />
            <mxPoint x="502.1600000000001" y="510" as="targetPoint" />
          </mxGeometry>
        </mxCell>
      </root>
    </mxGraphModel>
  </diagram>
</mxfile>
